<svg width="135" height="30" viewBox="0 0 135 30" fill="none" xmlns="http://www.w3.org/2000/svg">
<path d="M19.5 13.2679C20.8333 14.0378 20.8333 15.9623 19.5 16.7321L14.25 19.7631C12.9167 20.5329 11.25 19.5707 11.25 18.0311L11.25 11.9689C11.25 10.4293 12.9167 9.46706 14.25 10.2369L19.5 13.2679Z" fill="#F25822"/>
<circle cx="15" cy="15" r="13.5" stroke="#DDDDDD" stroke-width="3"/>
<path d="M48.165 19L45.225 8.5H47.4L49.41 16.285L51.6 8.5H53.37L55.575 16.285L57.585 8.5H59.76L56.82 19H54.465L52.485 12.07L50.52 19H48.165ZM65.6768 11.5H67.6118V19H65.6768V18.115C65.0968 18.845 64.2818 19.21 63.2318 19.21C62.2318 19.21 61.3718 18.83 60.6518 18.07C59.9418 17.3 59.5868 16.36 59.5868 15.25C59.5868 14.14 59.9418 13.205 60.6518 12.445C61.3718 11.675 62.2318 11.29 63.2318 11.29C64.2818 11.29 65.0968 11.655 65.6768 12.385V11.5ZM62.1068 16.78C62.4968 17.17 62.9918 17.365 63.5918 17.365C64.1918 17.365 64.6868 17.17 65.0768 16.78C65.4768 16.38 65.6768 15.87 65.6768 15.25C65.6768 14.63 65.4768 14.125 65.0768 13.735C64.6868 13.335 64.1918 13.135 63.5918 13.135C62.9918 13.135 62.4968 13.335 62.1068 13.735C61.7168 14.125 61.5218 14.63 61.5218 15.25C61.5218 15.87 61.7168 16.38 62.1068 16.78ZM73.6564 13.36H71.9614V16.48C71.9614 16.74 72.0264 16.93 72.1564 17.05C72.2864 17.17 72.4764 17.24 72.7264 17.26C72.9764 17.27 73.2864 17.265 73.6564 17.245V19C72.3264 19.15 71.3864 19.025 70.8364 18.625C70.2964 18.225 70.0264 17.51 70.0264 16.48V13.36H68.7214V11.5H70.0264V9.985L71.9614 9.4V11.5H73.6564V13.36ZM78.3564 19.21C77.2264 19.21 76.2814 18.83 75.5214 18.07C74.7714 17.31 74.3964 16.37 74.3964 15.25C74.3964 14.13 74.7714 13.19 75.5214 12.43C76.2814 11.67 77.2264 11.29 78.3564 11.29C79.0864 11.29 79.7514 11.465 80.3514 11.815C80.9514 12.165 81.4064 12.635 81.7164 13.225L80.0514 14.2C79.9014 13.89 79.6714 13.645 79.3614 13.465C79.0614 13.285 78.7214 13.195 78.3414 13.195C77.7614 13.195 77.2814 13.39 76.9014 13.78C76.5214 14.16 76.3314 14.65 76.3314 15.25C76.3314 15.84 76.5214 16.33 76.9014 16.72C77.2814 17.1 77.7614 17.29 78.3414 17.29C78.7314 17.29 79.0764 17.205 79.3764 17.035C79.6864 16.855 79.9164 16.61 80.0664 16.3L81.7464 17.26C81.4164 17.85 80.9514 18.325 80.3514 18.685C79.7514 19.035 79.0864 19.21 78.3564 19.21ZM86.9398 11.29C87.7598 11.29 88.4348 11.565 88.9648 12.115C89.5048 12.665 89.7748 13.425 89.7748 14.395V19H87.8398V14.635C87.8398 14.135 87.7048 13.755 87.4348 13.495C87.1648 13.225 86.8048 13.09 86.3548 13.09C85.8548 13.09 85.4548 13.245 85.1548 13.555C84.8548 13.865 84.7048 14.33 84.7048 14.95V19H82.7698V8.5H84.7048V12.34C85.1748 11.64 85.9198 11.29 86.9398 11.29ZM97.862 19L94.337 8.5H96.587L99.152 16.57L101.702 8.5H103.967L100.427 19H97.862ZM105.556 10.6C105.236 10.6 104.956 10.485 104.716 10.255C104.486 10.015 104.371 9.735 104.371 9.415C104.371 9.095 104.486 8.815 104.716 8.575C104.956 8.335 105.236 8.215 105.556 8.215C105.886 8.215 106.166 8.335 106.396 8.575C106.636 8.815 106.756 9.095 106.756 9.415C106.756 9.735 106.636 10.015 106.396 10.255C106.166 10.485 105.886 10.6 105.556 10.6ZM104.596 19V11.5H106.531V19H104.596ZM113.987 8.5H115.922V19H113.987V18.115C113.417 18.845 112.607 19.21 111.557 19.21C110.547 19.21 109.682 18.83 108.962 18.07C108.252 17.3 107.897 16.36 107.897 15.25C107.897 14.14 108.252 13.205 108.962 12.445C109.682 11.675 110.547 11.29 111.557 11.29C112.607 11.29 113.417 11.655 113.987 12.385V8.5ZM110.417 16.78C110.817 17.17 111.317 17.365 111.917 17.365C112.517 17.365 113.012 17.17 113.402 16.78C113.792 16.38 113.987 15.87 113.987 15.25C113.987 14.63 113.792 14.125 113.402 13.735C113.012 13.335 112.517 13.135 111.917 13.135C111.317 13.135 110.817 13.335 110.417 13.735C110.027 14.125 109.832 14.63 109.832 15.25C109.832 15.87 110.027 16.38 110.417 16.78ZM119.327 16.045C119.587 16.985 120.292 17.455 121.442 17.455C122.182 17.455 122.742 17.205 123.122 16.705L124.682 17.605C123.942 18.675 122.852 19.21 121.412 19.21C120.172 19.21 119.177 18.835 118.427 18.085C117.677 17.335 117.302 16.39 117.302 15.25C117.302 14.12 117.672 13.18 118.412 12.43C119.152 11.67 120.102 11.29 121.262 11.29C122.362 11.29 123.267 11.67 123.977 12.43C124.697 13.19 125.057 14.13 125.057 15.25C125.057 15.5 125.032 15.765 124.982 16.045H119.327ZM119.297 14.545H123.122C123.012 14.035 122.782 13.655 122.432 13.405C122.092 13.155 121.702 13.03 121.262 13.03C120.742 13.03 120.312 13.165 119.972 13.435C119.632 13.695 119.407 14.065 119.297 14.545ZM132.739 18.07C131.969 18.83 131.029 19.21 129.919 19.21C128.809 19.21 127.869 18.83 127.099 18.07C126.339 17.3 125.959 16.36 125.959 15.25C125.959 14.14 126.339 13.205 127.099 12.445C127.869 11.675 128.809 11.29 129.919 11.29C131.029 11.29 131.969 11.675 132.739 12.445C133.509 13.205 133.894 14.14 133.894 15.25C133.894 16.36 133.509 17.3 132.739 18.07ZM128.464 16.735C128.854 17.125 129.339 17.32 129.919 17.32C130.499 17.32 130.984 17.125 131.374 16.735C131.764 16.345 131.959 15.85 131.959 15.25C131.959 14.65 131.764 14.155 131.374 13.765C130.984 13.375 130.499 13.18 129.919 13.18C129.339 13.18 128.854 13.375 128.464 13.765C128.084 14.155 127.894 14.65 127.894 15.25C127.894 15.85 128.084 16.345 128.464 16.735Z" fill="#AAAAAA"/>
</svg>
